<?xml version="1.0" encoding="utf-8" ?>
<svg baseProfile="full" height="512" style="width: 100%; height: 100%;" version="1.1" viewBox="-0.5 -0.5 1.0 1.0" width="512" xmlns="http://www.w3.org/2000/svg" xmlns:ev="http://www.w3.org/2001/xml-events" xmlns:xlink="http://www.w3.org/1999/xlink"><defs><clipPath id="id1"><rect height="1.0" width="1.0" x="-0.5" y="-0.5" /></clipPath></defs><g clip-path="url(#id1)" fill="#e0efe7" fill-opacity="0.75" stroke="black" stroke-linejoin="round" stroke-width="0.002"><polygon points="-0.05552,-0.34577 -0.04532,-0.35151 -0.03199,-0.37649" /><polygon points="-0.04532,-0.35151 -0.02415,-0.38317 -0.03199,-0.37649" /><polygon points="-0.03199,-0.37649 -0.02415,-0.38317 -0.01703,-0.40529" /><polygon points="-0.02415,-0.38317 -0.00972,-0.40885 -0.01703,-0.40529" /><polygon points="-0.00972,-0.40885 0.00276,-0.41613 -0.00507,-0.4153" /><polygon points="-0.00507,-0.4153 0.00276,-0.41613 0.00677,-0.41882" /><polygon points="0.14076,-0.41688 0.10677,-0.421 0.14522,-0.40933" /><polygon points="0.10677,-0.421 0.11501,-0.41526 0.14522,-0.40933" /><polygon points="0.02344,-0.19989 0.01172,-0.19816 0.01726,-0.19803" /><polygon points="-0.06394,-0.10291 -0.07142,-0.07916 -0.04401,-0.08893" /><polygon points="-0.03501,-0.15521 -0.04456,-0.14012 -0.02167,-0.16123" /><polygon points="-0.03501,-0.15521 -0.02167,-0.16123 -0.00531,-0.18541" /><polygon points="0.1697,0.07823 0.18006,0.02373 0.16933,0.07194" /><polygon points="0.16642,0.09675 0.1697,0.07823 0.16933,0.07194" /><polygon points="0.1572,0.11619 0.16642,0.09675 0.16933,0.07194" /><polygon points="-0.03469,-0.12727 -0.06394,-0.10291 -0.04401,-0.08893" /><polygon points="-0.02405,-0.16778 -0.00531,-0.18541 -0.01231,-0.18124" /><polygon points="-0.02405,-0.16778 -0.03501,-0.15521 -0.00531,-0.18541" /><polygon points="-0.04456,-0.14012 -0.03469,-0.12727 -0.02167,-0.16123" /><polygon points="-0.04456,-0.14012 -0.05687,-0.12064 -0.03469,-0.12727" /><polygon points="-0.03469,-0.12727 -0.05687,-0.12064 -0.06394,-0.10291" /><polygon points="-0.03918,0.05241 -0.04507,0.00216 -0.07541,0.011" /><polygon points="-0.06904,0.03694 -0.03918,0.05241 -0.07541,0.011" /><polygon points="-0.07499,-0.06117 -0.04774,-0.0459 -0.04401,-0.08893" /><polygon points="-0.07499,-0.06117 -0.07956,-0.03591 -0.04774,-0.0459" /><polygon points="-0.04774,-0.0459 -0.07956,-0.03591 -0.07778,-0.01197" /><polygon points="-0.06904,0.03694 -0.06231,0.05876 -0.03918,0.05241" /><polygon points="-0.07142,-0.07916 -0.07499,-0.06117 -0.04401,-0.08893" /><polygon points="-0.04774,-0.0459 -0.07778,-0.01197 -0.04507,0.00216" /><polygon points="-0.07778,-0.01197 -0.07541,0.011 -0.04507,0.00216" /><polygon points="0.01172,-0.19816 0.00249,-0.19166 0.01726,-0.19803" /><polygon points="0.10677,-0.421 0.08372,-0.42041 0.11501,-0.41526" /><polygon points="0.08372,-0.42041 0.09231,-0.41717 0.11501,-0.41526" /><polygon points="0.00249,-0.19166 -0.00531,-0.18541 0.01726,-0.19803" /><polygon points="0.00249,-0.19166 -0.01231,-0.18124 -0.00531,-0.18541" /><polygon points="0.06101,-0.419 0.03777,-0.41957 0.06967,-0.41814" /><polygon points="-0.14038,-0.22698 -0.10335,-0.27551 -0.11803,-0.26564" /><polygon points="-0.11803,-0.26564 -0.10335,-0.27551 -0.07936,-0.31498" /><polygon points="-0.15826,-0.21433 -0.14038,-0.22698 -0.11803,-0.26564" /><polygon points="-0.17778,-0.17646 -0.14038,-0.22698 -0.15826,-0.21433" /><polygon points="-0.07936,-0.31498 -0.06673,-0.322 -0.05552,-0.34577" /><polygon points="-0.10335,-0.27551 -0.06673,-0.322 -0.07936,-0.31498" /><polygon points="-0.06673,-0.322 -0.04532,-0.35151 -0.05552,-0.34577" /><polygon points="0.06101,-0.419 0.06967,-0.41814 0.09231,-0.41717" /><polygon points="0.08372,-0.42041 0.06101,-0.419 0.09231,-0.41717" /><polygon points="0.1572,0.11619 0.16933,0.07194 0.13855,0.11563" /><polygon points="0.1403,0.13436 0.1572,0.11619 0.13855,0.11563" /><polygon points="-0.03918,0.05241 -0.06231,0.05876 -0.03418,0.08722" /><polygon points="-0.06231,0.05876 -0.04152,0.0937 -0.03418,0.08722" /><polygon points="0.1403,0.13436 0.13855,0.11563 0.1025,0.14993" /><polygon points="0.13855,0.11563 0.10564,0.14404 0.1025,0.14993" /><polygon points="0.06985,0.1552 0.10564,0.14404 0.10151,0.12183" /><polygon points="0.08059,0.11891 0.06985,0.1552 0.10151,0.12183" /><polygon points="0.06985,0.1552 0.08059,0.11891 0.05632,0.11075" /><polygon points="0.02587,0.10547 -0.0076,0.09539 0.00982,0.13895" /><polygon points="0.05632,0.11075 0.02587,0.10547 0.00982,0.13895" /><polygon points="0.04054,0.15073 0.05632,0.11075 0.00982,0.13895" /><polygon points="-0.04152,0.0937 -0.01853,0.11905 -0.03418,0.08722" /><polygon points="0.04054,0.15073 0.06985,0.1552 0.05632,0.11075" /><polygon points="-0.0076,0.09539 -0.01853,0.11905 0.00982,0.13895" /><polygon points="-0.01853,0.11905 -0.0076,0.09539 -0.03418,0.08722" /><polygon points="0.1025,0.14993 0.10564,0.14404 0.06985,0.1552" /><polygon points="0.20658,0.37474 0.24301,0.36044 0.25169,0.34698" /><polygon points="0.21223,0.3686 0.20658,0.37474 0.25169,0.34698" /><polygon points="0.20658,0.37474 0.21223,0.3686 0.1548,0.37806" /><polygon points="0.21223,0.3686 0.16066,0.3753 0.1548,0.37806" /><polygon points="0.1548,0.37806 0.16066,0.3753 0.09423,0.35974" /><polygon points="0.09119,0.36429 0.09423,0.35974 0.03388,0.3518" /><polygon points="0.09119,0.36429 0.1548,0.37806 0.09423,0.35974" /><polygon points="0.03388,0.3518 0.03513,0.34552 -0.03994,0.32373" /><polygon points="0.03513,0.34552 -0.03173,0.31594 -0.03994,0.32373" /><polygon points="0.16502,-0.3907 -0.00972,-0.40885 0.17274,-0.36511" /><polygon points="-0.02415,-0.38317 -0.04532,-0.35151 0.17515,-0.29792" /><polygon points="0.16502,-0.3907 0.11501,-0.41526 0.09231,-0.41717" /><polygon points="-0.21317,0.11391 0.31916,0.23919 0.329,0.19005" /><polygon points="-0.23056,0.05482 -0.21317,0.11391 0.329,0.19005" /><polygon points="-0.23835,-0.00707 -0.23056,0.05482 0.33276,0.13395" /><polygon points="0.17274,-0.36511 -0.02415,-0.38317 0.17515,-0.29792" /><polygon points="-0.04532,-0.35151 -0.06673,-0.322 0.18464,-0.25215" /><polygon points="0.09423,0.35974 0.16066,0.3753 0.21223,0.3686" /><polygon points="-0.23056,0.05482 0.329,0.19005 0.33276,0.13395" /><polygon points="-0.03173,0.31594 0.09423,0.35974 0.21223,0.3686" /><polygon points="0.15672,-0.40066 0.14522,-0.40933 0.11501,-0.41526" /><polygon points="0.22123,-0.18495 -0.10335,-0.27551 0.26768,-0.11558" /><polygon points="-0.10335,-0.27551 -0.14038,-0.22698 0.26768,-0.11558" /><polygon points="0.29832,-0.05142 -0.17778,-0.17646 -0.20985,-0.12175" /><polygon points="0.17515,-0.29792 -0.04532,-0.35151 0.18464,-0.25215" /><polygon points="0.16502,-0.3907 0.09231,-0.41717 -0.00972,-0.40885" /><polygon points="0.31759,0.01284 0.29832,-0.05142 -0.20985,-0.12175" /><polygon points="-0.00972,-0.40885 -0.02415,-0.38317 0.17274,-0.36511" /><polygon points="-0.06673,-0.322 -0.10335,-0.27551 0.22123,-0.18495" /><polygon points="-0.20985,-0.12175 -0.22856,-0.06727 0.31759,0.01284" /><polygon points="-0.22856,-0.06727 -0.23835,-0.00707 0.3281,0.07291" /><polygon points="-0.22856,-0.06727 0.3281,0.07291 0.31759,0.01284" /><polygon points="0.16502,-0.3907 0.15672,-0.40066 0.11501,-0.41526" /><polygon points="-0.03173,0.31594 0.03513,0.34552 0.09423,0.35974" /><polygon points="0.06967,-0.41814 0.04504,-0.42015 -0.00972,-0.40885" /><polygon points="-0.23835,-0.00707 0.33276,0.13395 0.3281,0.07291" /><polygon points="0.18464,-0.25215 -0.06673,-0.322 0.22123,-0.18495" /><polygon points="0.09231,-0.41717 0.06967,-0.41814 -0.00972,-0.40885" /><polygon points="-0.14038,-0.22698 -0.17778,-0.17646 0.29832,-0.05142" /><polygon points="0.04504,-0.42015 0.00876,-0.42124 -0.00972,-0.40885" /><polygon points="0.26768,-0.11558 -0.14038,-0.22698 0.29832,-0.05142" /><polygon points="0.15741,-0.12623 0.14417,-0.14606 0.17938,-0.07856" /><polygon points="0.00274,-0.12996 0.00845,-0.1584 -0.02167,-0.16123" /><polygon points="0.00845,-0.1584 0.01942,-0.18333 -0.02167,-0.16123" /><polygon points="0.04346,-0.15734 0.00845,-0.1584 0.00274,-0.12996" /><polygon points="0.01942,-0.18333 0.00845,-0.1584 0.04107,-0.17567" /><polygon points="0.00845,-0.1584 0.04346,-0.15734 0.04107,-0.17567" /><polygon points="0.01726,-0.19803 0.04328,-0.1943 0.0636,-0.1969" /><polygon points="0.03967,-0.20493 0.01726,-0.19803 0.0636,-0.1969" /><polygon points="0.09026,-0.18172 0.06308,-0.18035 0.11428,-0.15459" /><polygon points="0.14079,-0.06896 0.13593,-0.0181 0.16723,-0.00052" /><polygon points="0.13855,0.11563 0.12374,0.09502 0.10151,0.12183" /><polygon points="0.10564,0.14404 0.13855,0.11563 0.10151,0.12183" /><polygon points="0.13855,0.11563 0.16933,0.07194 0.12374,0.09502" /><polygon points="0.16933,0.07194 0.15343,0.04868 0.12374,0.09502" /><polygon points="0.16723,-0.00052 0.15343,0.04868 0.16933,0.07194" /><polygon points="-0.0076,0.09539 0.02587,0.10547 -0.00234,0.05376" /><polygon points="0.02587,0.10547 0.03658,0.06265 -0.00234,0.05376" /><polygon points="0.03658,0.06265 0.04376,0.01289 -0.00234,0.05376" /><polygon points="0.04376,0.01289 -0.00143,0.00317 -0.00234,0.05376" /><polygon points="-0.00143,0.00317 -0.00301,-0.04689 -0.04507,0.00216" /><polygon points="0.11255,-0.17521 0.09026,-0.18172 0.11428,-0.15459" /><polygon points="0.14417,-0.14606 0.11255,-0.17521 0.11428,-0.15459" /><polygon points="0.08059,0.11891 0.10113,0.08022 0.05632,0.11075" /><polygon points="-0.00301,-0.04689 -0.00143,0.00317 0.04647,-0.0393" /><polygon points="0.04328,-0.1943 0.01942,-0.18333 0.04107,-0.17567" /><polygon points="-0.00123,-0.09146 -0.00301,-0.04689 0.04647,-0.0393" /><polygon points="0.04796,-0.08555 -0.00123,-0.09146 0.04647,-0.0393" /><polygon points="-0.00531,-0.18541 0.01942,-0.18333 0.01726,-0.19803" /><polygon points="-0.00143,0.00317 0.04376,0.01289 0.04647,-0.0393" /><polygon points="0.00274,-0.12996 -0.03469,-0.12727 -0.00123,-0.09146" /><polygon points="-0.03469,-0.12727 -0.04401,-0.08893 -0.00123,-0.09146" /><polygon points="0.04647,-0.0393 0.04376,0.01289 0.08713,0.02082" /><polygon points="0.10113,0.08022 0.07227,0.06928 0.05632,0.11075" /><polygon points="0.12433,0.03176 0.08713,0.02082 0.07227,0.06928" /><polygon points="0.16723,-0.00052 0.13593,-0.0181 0.15343,0.04868" /><polygon points="0.10113,0.08022 0.12433,0.03176 0.07227,0.06928" /><polygon points="-0.00301,-0.04689 -0.04774,-0.0459 -0.04507,0.00216" /><polygon points="-0.0076,0.09539 -0.00234,0.05376 -0.03418,0.08722" /><polygon points="0.13593,-0.0181 0.12433,0.03176 0.15343,0.04868" /><polygon points="0.03658,0.06265 0.02587,0.10547 0.05632,0.11075" /><polygon points="0.1673,-0.10285 0.1735,-0.05145 0.17938,-0.07856" /><polygon points="0.1735,-0.05145 0.18629,-0.02668 0.17938,-0.07856" /><polygon points="0.18629,-0.02668 0.1735,-0.05145 0.16723,-0.00052" /><polygon points="0.18006,0.02373 0.18629,-0.02668 0.16723,-0.00052" /><polygon points="0.12433,0.03176 0.13593,-0.0181 0.08713,0.02082" /><polygon points="0.15343,0.04868 0.12433,0.03176 0.10113,0.08022" /><polygon points="0.07227,0.06928 0.08713,0.02082 0.03658,0.06265" /><polygon points="0.10113,0.08022 0.08059,0.11891 0.10151,0.12183" /><polygon points="0.18006,0.02373 0.16723,-0.00052 0.16933,0.07194" /><polygon points="0.08713,0.02082 0.04376,0.01289 0.03658,0.06265" /><polygon points="0.1735,-0.05145 0.14079,-0.06896 0.16723,-0.00052" /><polygon points="-0.00234,0.05376 -0.00143,0.00317 -0.03918,0.05241" /><polygon points="0.12374,0.09502 0.10113,0.08022 0.10151,0.12183" /><polygon points="-0.04401,-0.08893 -0.04774,-0.0459 -0.00123,-0.09146" /><polygon points="-0.00143,0.00317 -0.04507,0.00216 -0.03918,0.05241" /><polygon points="0.12374,0.09502 0.15343,0.04868 0.10113,0.08022" /><polygon points="-0.04774,-0.0459 -0.00301,-0.04689 -0.00123,-0.09146" /><polygon points="-0.00234,0.05376 -0.03918,0.05241 -0.03418,0.08722" /><polygon points="0.07227,0.06928 0.03658,0.06265 0.05632,0.11075" /><polygon points="-0.03173,0.31594 0.21223,0.3686 0.25169,0.34698" /><polygon points="-0.08575,0.27367 -0.03173,0.31594 0.25169,0.34698" /><polygon points="-0.13433,0.22787 0.28002,0.31901 0.30346,0.28162" /><polygon points="-0.08575,0.27367 0.25169,0.34698 0.28002,0.31901" /><polygon points="-0.13433,0.22787 -0.08575,0.27367 0.28002,0.31901" /><polygon points="-0.17947,0.17344 -0.13433,0.22787 0.30346,0.28162" /><polygon points="-0.17947,0.17344 0.30346,0.28162 0.31916,0.23919" /><polygon points="-0.21317,0.11391 -0.17947,0.17344 0.31916,0.23919" /><polygon points="0.07962,-0.15743 0.04346,-0.15734 0.09153,-0.12139" /><polygon points="0.04346,-0.15734 0.04697,-0.12673 0.09153,-0.12139" /><polygon points="0.04697,-0.12673 0.04346,-0.15734 0.00274,-0.12996" /><polygon points="0.07962,-0.15743 0.06308,-0.18035 0.04107,-0.17567" /><polygon points="0.04346,-0.15734 0.07962,-0.15743 0.04107,-0.17567" /><polygon points="0.06308,-0.18035 0.04328,-0.1943 0.04107,-0.17567" /><polygon points="0.08332,-0.19188 0.03967,-0.20493 0.0636,-0.1969" /><polygon points="0.1673,-0.10285 0.14417,-0.14606 0.11428,-0.15459" /><polygon points="0.13229,-0.11459 0.1673,-0.10285 0.11428,-0.15459" /><polygon points="0.04796,-0.08555 0.04697,-0.12673 -0.00123,-0.09146" /><polygon points="0.06308,-0.18035 0.07962,-0.15743 0.11428,-0.15459" /><polygon points="0.04328,-0.1943 0.06308,-0.18035 0.09026,-0.18172" /><polygon points="0.11255,-0.17521 0.08332,-0.19188 0.09026,-0.18172" /><polygon points="-0.03469,-0.12727 0.00274,-0.12996 -0.02167,-0.16123" /><polygon points="0.0636,-0.1969 0.04328,-0.1943 0.09026,-0.18172" /><polygon points="0.11428,-0.15459 0.07962,-0.15743 0.09153,-0.12139" /><polygon points="0.13229,-0.11459 0.11428,-0.15459 0.09153,-0.12139" /><polygon points="0.01942,-0.18333 0.04328,-0.1943 0.01726,-0.19803" /><polygon points="0.01942,-0.18333 -0.00531,-0.18541 -0.02167,-0.16123" /><polygon points="0.04697,-0.12673 0.00274,-0.12996 -0.00123,-0.09146" /><polygon points="0.08332,-0.19188 0.0636,-0.1969 0.09026,-0.18172" /><polygon points="0.20658,0.37474 0.1548,0.37806 0.18932,0.38173" /><polygon points="0.1548,0.37806 0.14883,0.38214 0.18932,0.38173" /><polygon points="0.02979,0.35709 -0.04255,0.33642 -0.03461,0.36074" /><polygon points="0.0334,0.37387 0.02979,0.35709 -0.03461,0.36074" /><polygon points="0.14883,0.38214 0.1548,0.37806 0.09119,0.36429" /><polygon points="0.07752,0.38018 0.06453,0.3874 0.12081,0.39008" /><polygon points="0.07752,0.38018 0.12081,0.39008 0.08614,0.37457" /><polygon points="0.07752,0.38018 0.08614,0.37457 0.02979,0.35709" /><polygon points="0.0334,0.37387 0.07752,0.38018 0.02979,0.35709" /><polygon points="0.07752,0.38018 0.0334,0.37387 0.06453,0.3874" /><polygon points="0.08614,0.37457 0.14883,0.38214 0.09119,0.36429" /><polygon points="0.08614,0.37457 0.09119,0.36429 0.02979,0.35709" /><polygon points="0.09119,0.36429 0.03388,0.3518 0.02979,0.35709" /><polygon points="-0.04255,0.33642 -0.10513,0.30744 -0.03461,0.36074" /><polygon points="-0.10513,0.30744 -0.10243,0.33555 -0.03461,0.36074" /><polygon points="-0.10513,0.30744 -0.16025,0.26752 -0.10243,0.33555" /><polygon points="-0.16025,0.26752 -0.15798,0.30226 -0.10243,0.33555" /><polygon points="-0.16025,0.26752 -0.20606,0.21619 -0.15798,0.30226" /><polygon points="-0.20606,0.21619 -0.20349,0.25712 -0.15798,0.30226" /><polygon points="-0.10243,0.33555 -0.15798,0.30226 -0.0858,0.354" /><polygon points="-0.15798,0.30226 -0.13201,0.33157 -0.0858,0.354" /><polygon points="-0.15798,0.30226 -0.20349,0.25712 -0.13201,0.33157" /><polygon points="-0.20349,0.25712 -0.17203,0.29337 -0.13201,0.33157" /><polygon points="-0.17947,0.17344 -0.21317,0.11391 -0.23285,0.13044" /><polygon points="-0.19889,0.1905 -0.17947,0.17344 -0.23285,0.13044" /><polygon points="-0.13433,0.22787 -0.17947,0.17344 -0.19889,0.1905" /><polygon points="-0.15357,0.2447 -0.13433,0.22787 -0.19889,0.1905" /><polygon points="-0.08575,0.27367 -0.13433,0.22787 -0.15357,0.2447" /><polygon points="-0.10003,0.28916 -0.08575,0.27367 -0.15357,0.2447" /><polygon points="-0.03173,0.31594 -0.08575,0.27367 -0.10003,0.28916" /><polygon points="-0.20985,-0.12175 -0.17778,-0.17646 -0.19706,-0.16142" /><polygon points="-0.23294,-0.10581 -0.20985,-0.12175 -0.19706,-0.16142" /><polygon points="-0.23835,-0.00707 -0.22856,-0.06727 -0.25205,-0.0501" /><polygon points="-0.26254,0.00979 -0.23835,-0.00707 -0.25205,-0.0501" /><polygon points="-0.19889,0.1905 -0.20606,0.21619 -0.16025,0.26752" /><polygon points="0.04697,-0.12673 0.04796,-0.08555 0.09153,-0.12139" /><polygon points="0.12081,0.39008 0.06453,0.3874 0.11845,0.39664" /><polygon points="0.06453,0.3874 0.05677,0.39471 0.11845,0.39664" /><polygon points="-0.04801,0.37465 0.01316,0.38867 0.05677,0.39471" /><polygon points="0.06453,0.3874 0.0334,0.37387 -0.00133,0.38369" /><polygon points="-0.10243,0.33555 -0.0858,0.354 -0.03461,0.36074" /><polygon points="-0.10003,0.28916 -0.10513,0.30744 -0.04255,0.33642" /><polygon points="0.13229,-0.11459 0.09153,-0.12139 0.14079,-0.06896" /><polygon points="0.09153,-0.12139 0.0964,-0.0788 0.14079,-0.06896" /><polygon points="0.09354,-0.02886 0.0964,-0.0788 0.04647,-0.0393" /><polygon points="-0.0858,0.354 -0.04801,0.37465 -0.00133,0.38369" /><polygon points="-0.03994,0.32373 -0.03173,0.31594 -0.10003,0.28916" /><polygon points="-0.01703,-0.40529 -0.00972,-0.40885 -0.00507,-0.4153" /><polygon points="-0.19706,-0.16142 -0.17778,-0.17646 -0.15826,-0.21433" /><polygon points="0.12081,0.39008 0.11845,0.39664 0.15627,0.39164" /><polygon points="0.03388,0.3518 -0.03994,0.32373 -0.04255,0.33642" /><polygon points="-0.10003,0.28916 -0.15357,0.2447 -0.10513,0.30744" /><polygon points="0.0334,0.37387 -0.03461,0.36074 -0.00133,0.38369" /><polygon points="-0.19889,0.1905 -0.23285,0.13044 -0.20606,0.21619" /><polygon points="0.02979,0.35709 0.03388,0.3518 -0.04255,0.33642" /><polygon points="0.25169,0.34698 0.24301,0.36044 0.28002,0.31901" /><polygon points="0.12081,0.39008 0.14883,0.38214 0.08614,0.37457" /><polygon points="-0.25205,-0.0501 -0.22856,-0.06727 -0.23294,-0.10581" /><polygon points="0.20658,0.37474 0.18932,0.38173 0.24301,0.36044" /><polygon points="0.18932,0.38173 0.21756,0.37061 0.24301,0.36044" /><polygon points="-0.13201,0.33157 -0.08723,0.35521 -0.04801,0.37465" /><polygon points="-0.2698,0.03951 -0.26399,0.09105 -0.25568,0.14879" /><polygon points="-0.26148,0.0998 -0.2698,0.03951 -0.25568,0.14879" /><polygon points="-0.23056,0.05482 -0.23835,-0.00707 -0.26254,0.00979" /><polygon points="-0.2542,0.07124 -0.23056,0.05482 -0.26254,0.00979" /><polygon points="-0.2542,0.07124 -0.26254,0.00979 -0.26148,0.0998" /><polygon points="-0.26254,0.00979 -0.25205,-0.0501 -0.2698,0.03951" /><polygon points="0.06453,0.3874 -0.00133,0.38369 0.05677,0.39471" /><polygon points="-0.03994,0.32373 -0.10003,0.28916 -0.04255,0.33642" /><polygon points="0.13593,-0.0181 0.09354,-0.02886 0.08713,0.02082" /><polygon points="0.24301,0.36044 0.2692,0.33429 0.28002,0.31901" /><polygon points="-0.15357,0.2447 -0.16025,0.26752 -0.10513,0.30744" /><polygon points="-0.23995,0.15794 -0.26148,0.0998 -0.23618,0.20397" /><polygon points="0.09354,-0.02886 0.04647,-0.0393 0.08713,0.02082" /><polygon points="0.09354,-0.02886 0.13593,-0.0181 0.14079,-0.06896" /><polygon points="-0.26254,0.00979 -0.2698,0.03951 -0.26148,0.0998" /><polygon points="-0.2542,0.07124 -0.26148,0.0998 -0.23995,0.15794" /><polygon points="-0.23285,0.13044 -0.2542,0.07124 -0.23995,0.15794" /><polygon points="0.14883,0.38214 0.12081,0.39008 0.18932,0.38173" /><polygon points="-0.21317,0.11391 -0.23056,0.05482 -0.2542,0.07124" /><polygon points="0.14076,-0.41688 0.14522,-0.40933 0.15672,-0.40066" /><polygon points="0.1735,-0.05145 0.1673,-0.10285 0.14079,-0.06896" /><polygon points="-0.25205,-0.0501 -0.25829,-0.0196 -0.2698,0.03951" /><polygon points="-0.15357,0.2447 -0.19889,0.1905 -0.16025,0.26752" /><polygon points="0.09423,0.35974 0.03513,0.34552 0.03388,0.3518" /><polygon points="-0.03461,0.36074 -0.0858,0.354 -0.00133,0.38369" /><polygon points="-0.20606,0.21619 -0.23995,0.15794 -0.20349,0.25712" /><polygon points="-0.23285,0.13044 -0.23995,0.15794 -0.20606,0.21619" /><polygon points="0.12081,0.39008 0.15627,0.39164 0.18932,0.38173" /><polygon points="-0.26148,0.0998 -0.25568,0.14879 -0.23618,0.20397" /><polygon points="0.0964,-0.0788 0.09354,-0.02886 0.14079,-0.06896" /><polygon points="-0.23285,0.13044 -0.21317,0.11391 -0.2542,0.07124" /><polygon points="0.04796,-0.08555 0.0964,-0.0788 0.09153,-0.12139" /><polygon points="0.0964,-0.0788 0.04796,-0.08555 0.04647,-0.0393" /><polygon points="-0.0858,0.354 -0.13201,0.33157 -0.04801,0.37465" /><polygon points="0.1673,-0.10285 0.13229,-0.11459 0.14079,-0.06896" /><polygon points="-0.22856,-0.06727 -0.20985,-0.12175 -0.23294,-0.10581" /><polygon points="-0.23995,0.15794 -0.23618,0.20397 -0.20349,0.25712" /></g></svg>